# xmcd
#
# Track frame offsets: 
#        150
#        13810
#        31608
#        44772
#        59913
#        73318
#        85074
#        96912
#        110709
#        139135
#        152207
#
# Disc length: 2257 seconds
#
# Revision: 0
# Processed by: cddbd v1.5.2PL0 Copyright (c) Steve Scherf et al.
# Submitted via: ExactAudioCopy v1.0b4
#
DISCID=a208cf0b
DTITLE=Heidi Andresen and Band - No Name
DYEAR=2014
DGENRE=Blues Rock
TTITLE0=I'm Done
TTITLE1=No Name
TTITLE2=Our Own
TTITLE3=Feil Fly Pе Radar'n
TTITLE4=Kan'ke Vaere Naer
TTITLE5=Roadkill
TTITLE6=One Not Song
TTITLE7=Wasted Man
TTITLE8=Good Man
TTITLE9=Roman Nights
TTITLE10=Nothing To Offer
EXTD=
EXTT0=
EXTT1=
EXTT2=
EXTT3=
EXTT4=
EXTT5=
EXTT6=
EXTT7=
EXTT8=
EXTT9=
EXTT10=
PLAYORDER=
